<?xml version="1.0" standalone="no"?>
<!DOCTYPE svg PUBLIC "-//W3C//DTD SVG 1.1//EN" "http://www.w3.org/Graphics/SVG/1.1/DTD/svg11.dtd" >
<!--
2013-9-30: Created.
-->
<svg>
<metadata>
Created by iconfont
</metadata>
<defs>

<font id="iconfont" horiz-adv-x="1024" >
  <font-face
    font-family="iconfont"
    font-weight="500"
    font-stretch="normal"
    units-per-em="1024"
    ascent="896"
    descent="-128"
  />
    <missing-glyph />
    
    <glyph glyph-name="xingzhengzhifa" unicode="&#59104;" d="M350.921423 747.673949l318.757591 0.413416-57.66669-83.830267-203.11516 0.537236L350.921423 747.673949 350.921423 747.673949zM410.364646 647.226213l201.358071 0c-0.4953-51.215452 1.529905-108.301612-62.399675-134.840034-39.788799-16.493649-79.7618-5.539156-95.615509 6.365988C408.029365 553.061576 410.737144 599.689546 410.364646 647.226213L410.364646 647.226213zM207.31191 371.306023l3.141679-494.838132c0 0-6.283358-38.442544 22.488075 11.388375l82.469579 142.857639c6.118598 10.561543-0.227183 196.142216 2.79067 184.918593 4.732985-17.878183 18.167499-131.119293 21.744101-131.119293l35.94408-0.040932 277.255708 374.880039-360.448794-0.826831C228.683513 458.40166 203.902114 418.243031 207.31191 371.306023L207.31191 371.306023zM706.056994 458.938895c1.447014 1.901303 107.065751 10.044774 105.908344-69.052702-0.744997-48.405453 5.022593-520.322549 5.022593-520.322549s0.70304-13.662161-11.926099 4.732791c-12.566715 18.415418-95.574575 156.416446-95.574575 156.416446l-2.852071 187.151447c0 0-5.415558-18.08489-14.095597-62.810534-8.598171-44.747133-14.158021-70.582545-14.158021-70.582545l-253.961235 0.24764L706.056994 458.938895 706.056994 458.938895zM348.213644 39.91138l327.625926 0 114.196441-187.915857-535.969372-0.082888c-5.725633 0-6.842106 9.197476 0.206716 21.61939L348.213644 39.91138z"  horiz-adv-x="1024" />

    
    <glyph glyph-name="mianji" unicode="&#58880;" d="M947.93351 640.360715c16.063496 0 29.06104 12.998035 29.06104 29.059849L976.99455 822.984033c0 16.062837-12.997545 29.060873-29.06104 29.060873L794.334073 852.044906c-16.034842 0-29.060017-12.998035-29.060017-29.060873L765.274056 775.249869l-94.33837 0c-2.937009 0.451278-5.928256 0.451278-8.864241 0L258.72799 775.249869 258.72799 822.984033c0 16.062837-13.027222 29.060873-29.062063 29.060873L76.067513 852.044906c-16.063496 0-29.062063-12.998035-29.062063-29.060873l0-153.563468c0-16.062837 12.998568-29.059849 29.062063-29.059849l47.737143 0 0-506.581594L76.067513 133.779122c-16.063496 0-29.062063-12.997012-29.062063-29.059849l0-153.563468c0-16.062837 12.998568-29.059849 29.062063-29.059849l153.598414 0c16.034842 0 29.062063 12.997012 29.062063 29.059849l0 47.735188 506.545043 0 0-47.735188c0-16.062837 13.026198-29.059849 29.060017-29.059849l153.599437 0c16.063496 0 29.06104 12.997012 29.06104 29.059849L976.993527 104.718249c0 16.062837-12.997545 29.059849-29.06104 29.059849l-47.737143 0L900.195344 541.417239c0.050144 0.984421 0.050144 1.970888 0 2.955308l0 95.988168L947.93351 640.360715zM823.39716 793.92316l95.473264 0 0-95.441723-95.473264 0L823.39716 793.92316zM181.928783 436.079122c1.707968 1.102101 3.328951 2.394537 4.825086 3.89061l277.168724 277.158391 132.079449 0L181.928783 303.070806 181.928783 436.079122zM105.129576 793.92316l95.473264 0 0-46.62797c-0.014327-0.367367-0.02763-0.734734-0.02763-1.106194s0.014327-0.738827 0.02763-1.106194l0-46.601364-95.473264 0L105.129576 793.92316zM229.665927 640.360715c16.034842 0 29.062063 12.998035 29.062063 29.059849l0 47.707558 123.003375 0L181.928783 517.333728 181.928783 640.360715 229.665927 640.360715zM181.928783 220.883969l496.265511 496.244154 87.079762 0 0-35.606962L217.509574 133.779122l-35.580791 0L181.928783 220.883969zM105.129576-19.784346l0 95.441723 95.473264 0 0-46.600341c-0.014327-0.367367-0.02763-0.735757-0.02763-1.106194s0.014327-0.738827 0.02763-1.106194l0-46.62797L105.129576-19.783323zM842.071217 342.251154 563.784997 63.977359c-2.10912-2.109034-3.823229-4.460592-5.148464-6.965645L426.365717 57.011714l415.7055 415.688467L842.071217 342.251154zM918.870424-19.784346l-95.473264 0 0 95.441723 95.473264 0L918.870424-19.784346zM794.334073 133.779122c-16.034842 0-29.060017-12.997012-29.060017-29.059849l0-47.706535L639.011318 57.012737l203.060922 203.051579 0-126.284171L794.334073 133.780145zM842.071217 554.888042 344.174489 57.011714l-85.446499 0 0 35.795251 547.576186 547.552727 35.76704 0L842.071217 554.888042z"  horiz-adv-x="1024" />

    
    <glyph glyph-name="tubiao05" unicode="&#58978;" d="M511.431111 839.111111 966.656 638.805333 966.656 497.777778 56.433778 497.777778 56.433778 638.805333ZM0-14.222222l1024 0 0-113.777778-1024 0 0 113.777778ZM113.208889 541.070222l113.777778 0 0-561.493333-113.777778 0 0 561.493333ZM340.935111 541.070222l113.777778 0 0-561.493333-113.777778 0 0 561.493333ZM568.604444 541.070222l113.777778 0 0-561.493333-113.777778 0 0 561.493333ZM796.273778 541.070222l113.777778 0 0-561.493333-113.777778 0 0 561.493333Z"  horiz-adv-x="1024" />

    
    <glyph glyph-name="tubiao19" unicode="&#58898;" d="M934.21568 521.74336l-0.00512 0-83.44576 0c-3.96288 0-7.61344-1.18272-10.88512-2.94912l-37.62176 113.31584c-12.032 64.46592-57.40032 95.54944-113.152 95.54944L335.6928 727.65952c-64 0-102.84544-41.76384-113.15712-95.488l-37.71392-113.69984c-3.4304 1.98656-7.32672 3.27168-11.55584 3.27168L89.79456 521.74336c-12.82048 0-23.23456-10.3936-23.23456-23.25504l0-20.16256c0-12.82048 10.40896-23.23456 23.23456-23.23456l31.60064-5.4016c-9.96864-19.49696-15.67232-41.80992-15.67232-67.77344l-11.6992-133.74976c0-3.87584 0.28672-7.82336 0.768-11.79136-0.44544-2.42688-0.768-4.96128-0.768-7.552l0-160.90112c0-22.89664 18.5856-41.45664 41.47712-41.45664l63.29856 0c22.912 0 41.472 18.56 41.472 41.45664l0 51.712 544.22016 0 0-51.712c0-22.89664 18.57024-41.45664 41.472-41.45664l63.30368 0c22.89664 0 41.47712 18.56 41.47712 41.45664l0 160.90112c0 2.59072-0.32256 5.12512-0.77312 7.552 0.4608 3.97312 0.77312 7.91552 0.77312 11.79648l-11.70432 133.74464c0 26.02496-5.71392 48.3584-15.72864 67.9168l30.89408 5.25824c12.8512 0 23.23456 10.41408 23.23456 23.23968l0 20.15744C957.44512 511.35488 947.05664 521.74336 934.21568 521.74336zM250.4448 545.5616 250.4448 545.5616l27.62752 73.5232 0.38912 1.72544c2.74432 14.86848 8.88832 17.51552 17.9456 29.0048l432.49664 0c9.14432-11.8016 14.848-14.7968 17.37728-28.83584l28.06784-75.4176 10.27072-40.96512c-2.33472-29.97248-38.35392-53.65248-68.32128-53.65248l-407.808 0c-29.99296 0-66.00704 23.68-68.33152 53.65248L250.4448 545.5616zM269.80352 195.8912c-34.688 0-62.7968 28.1088-62.7968 62.80192s28.10368 62.80192 62.7968 62.80192 62.80192-28.09856 62.80192-62.80192C332.60032 224 304.49664 195.8912 269.80352 195.8912zM754.96448 195.8912c-34.69312 0-62.81728 28.1088-62.81728 62.80192s28.12928 62.80192 62.81728 62.80192 62.7968-28.09856 62.7968-62.80192C817.76128 224 789.65248 195.8912 754.96448 195.8912z"  horiz-adv-x="1024" />

    
    <glyph glyph-name="jianzhuhomeshouye" unicode="&#58910;" d="M510.3 831.8l406-214v-86h-810v86l404 214z m192-384h128v-300h-128v300z m-596-512v128h810v-128h-810z m340 512h128v-300h-128v300z m-256 0h128v-300h-128v300z"  horiz-adv-x="1024" />

    
    <glyph glyph-name="shequ" unicode="&#58881;" d="M814.287 623.287c27.633-8.324 53.676-11.641 77.702-11.641 25.513 0 48.58 3.806 68.878 9.267V778.985c-19.318-10.342-60.116-26.043-111.183-10.67-43.364 13.063-78.577 19.55-107.372 21.566V803.606c0 14.357-11.635 25.988-25.98 25.988-14.347 0-25.983-11.632-25.983-25.988v-205.023L550.637 738.391c-10.065 10.149-24.066 15.966-38.37 15.966-14.511 0-28.102-5.655-38.373-15.904L71.041 335.325c-9.924-9.928-9.924-26.022 0-35.951l7.48-7.479a25.4 25.4 0 0 1 17.974-7.438 25.461 25.461 0 0 1 17.992 7.449l62.95 62.993v-344.463h-15c-19.216 0-34.785-15.564-34.785-34.766 0-19.201 15.569-34.759 34.786-34.759h699.617c19.174 0 34.743 15.559 34.743 34.76s-15.569 34.765-34.743 34.765h-14.898V354.792l62.825-62.886a25.377 25.377 0 0 1 17.975-7.457h0.019a25.408 25.408 0 0 1 17.953 7.436l7.499 7.485c9.924 9.924 9.924 26.017 0 35.941L742.31 546.57v92.68c16.385-1.84 39.636-6.221 71.976-15.962zM605.493 10.435H419.036V208.1h186.457v-197.666z"  horiz-adv-x="1024" />

    
    <glyph glyph-name="anshijianjiansuo" unicode="&#58961;" d="M732.16 608.256l-221.696-221.696-129.536 129.536-43.008-43.008 173.056-173.056 43.008 43.008-0.512 0.512 221.696 221.696zM512 896c-282.624 0-512-229.376-512-512s229.376-512 512-512c283.136 0 512 229.376 512 512s-229.376 512-512 512zM537.6-66.048v139.776h-60.928v-139.264c-222.208 17.408-399.36 196.096-414.208 418.816h97.28c3.072 0 5.632 0.512 8.192 1.024h31.744v61.44h-137.728c15.36 222.208 192.512 400.384 414.208 417.792v-143.872h61.44v144.384c226.816-12.8 409.6-193.536 424.448-419.84h-3.072v1.024h-143.872v-60.928h31.744c2.56-0.512 5.12-1.024 8.192-1.024h107.008c-15.36-225.792-197.632-407.040-424.448-419.328z"  horiz-adv-x="1024" />

    
    <glyph glyph-name="zidongjiean" unicode="&#58939;" d="M1053.5 154.445c-11.908-20.071-33.465-33.314-58.115-33.314-12.329 0-23.884 3.313-33.824 9.097l-472.636 296.237 44.727 76.827 495.301-257.977c20.159-11.615 33.512-33.044 33.512-57.593 0-12.258-3.33-23.739-9.134-33.587zM611.898 637.748l-271.076 155.227c-13.444 7.735-22.351 22.020-22.351 38.385 0 8.177 2.223 15.834 6.099 22.401 7.827 13.158 22.187 21.974 38.606 21.974 8.235 0 15.952-2.218 22.586-6.088l270.863-155.112c21.4-12.234 28.716-39.338 16.365-60.58-7.939-13.364-22.299-22.18-38.719-22.18-8.235 0-15.952 2.218-22.586 6.088zM433.029 330.442l-271.116 155.227 156.525 268.873 271.116-155.227-156.525-268.873zM427.050 231.468c-7.946-13.373-22.318-22.196-38.75-22.196-8.221 0-15.927 2.208-22.556 6.064l-270.901 155.111c-13.444 7.735-22.351 22.020-22.351 38.385 0 8.177 2.223 15.834 6.099 22.401 7.834 13.167 22.206 21.99 38.638 21.99 8.221 0 15.927-2.208 22.556-6.064l270.902-155.112c21.36-12.234 28.716-39.377 16.365-60.58zM511.39 88.357c24.704 0 39.338-14.83 39.338-39.338v-78.636h39.338v-78.715h-590.065v78.716h39.338v78.636c0 24.507 14.634 39.338 39.338 39.338h432.715z"  horiz-adv-x="1062" />

    
    <glyph glyph-name="-lian" unicode="&#58887;" d="M575.0784 684.5952h236.544l-195.1232-417.9968h409.6l-202.24 433.3568 51.5072 100.0448H150.784L202.24 699.9552 0 266.5984h409.6L214.528 684.5952h236.544v-639.9488H148.7872v-124.0064H878.592v124.0064h-303.5136V684.5952z m187.5456-325.0176l58.7264 125.7984 58.7264-125.7984h-117.4528z m-616.5504 0L204.8 485.4272l58.7264-125.7984-117.4528-0.0512z"  horiz-adv-x="1026" />

    
    <glyph glyph-name="shiyourenkou" unicode="&#58924;" d="M644.327 410.336c50.223 39.017 82.864 97.555 82.864 163.391C727.191 688.336 631.768 781 511.224 781c-118.034 0-215.985-92.664-215.985-207.272 0-65.836 32.659-124.374 82.864-163.391-133.095-51.214-226-175.588-226-321.925v-68.251c0-19.496 15.062-34.16 35.169-34.16H832.64c20.116 0 35.178 14.63 35.178 34.16v68.251c2.501 146.336-92.906 270.71-223.491 321.924M355.519 573.727c0 82.898 70.304 151.202 155.688 151.202 85.366 0 155.705-68.269 155.705-151.202 0-82.925-70.305-151.202-155.705-151.202-85.358 2.441-155.688 68.277-155.688 151.202m459.557-531.622H207.379V78.68c0 160.967 135.588 295.071 303.844 295.071 168.247 0 303.818-131.672 303.818-295.071v-36.575h0.035M232.491 378.617l7.513 2.433c15.062 4.865 25.111 17.063 25.111 31.728 0 14.622-10.05 26.811-25.111 31.676-37.671 17.063-62.782 53.647-62.782 95.131 0 46.34 40.173 85.357 85.392 97.546 7.548 21.962 20.064 43.882 32.659 60.979 2.501 4.865 5.003 7.29 7.513 12.155h-7.513c-97.917 0-178.306-78.034-178.306-173.147 0-43.882 17.563-85.357 47.729-117.05C69.281 376.185 9 283.504 9 178.643v-53.639c0-19.513 15.062-34.143 35.161-34.143h65.292c0 24.378 2.51 39.008 7.514 60.971H71.748v26.811c0 95.13 65.327 175.596 160.743 199.974m625.269 43.908c30.123 31.693 47.721 73.168 47.721 117.059 0 95.114-80.346 173.147-178.289 173.147h-7.557c2.52-4.865 5.004-7.332 7.522-12.197 15.044-19.521 25.12-39.017 32.659-60.971 42.666-14.622 90.403-51.206 90.403-97.546 0-41.458-25.119-78.034-62.782-95.096-15.078-4.865-25.119-17.063-25.119-31.719 0-14.63 10.041-26.819 25.119-31.719l7.54-2.433c95.424-24.396 158.224-104.861 158.224-199.975l1-26.828h-46.202c5.003-21.945 7.539-36.575 7.539-60.971h65.302c20.082 0 35.16 14.63 35.16 34.16v53.639c-2.553 102.463-65.318 195.11-158.24 241.45m0 0"  horiz-adv-x="1024" />

    
    <glyph glyph-name="renyuan" unicode="&#58971;" d="M754.69753 608.674161c3.120571-1.755321 6.241142-3.656919 9.288575-5.753553l9.288574-6.31428 0.170656-11.117034c0.511969-32.229647-3.364366-59.534643-11.799659-80.549738-7.777048-19.211015-19.308533-33.594897-34.76511-42.249605-10.507548-37.51999-22.843555-72.285101-40.299249-101.467315-20.113055-33.619276-46.662288-59.461504-84.206657-73.382177-16.797448-6.143624-59.65654-8.996021-100.930966-8.410914-39.836039 0.609487-79.793975 4.558959-95.640624 11.848418-34.131245 15.749132-58.120634 42.152087-76.283333 75.064359-15.578475 28.109518-26.695509 60.826754-36.374155 95.37245-15.968547 8.337776-27.963241 22.648519-36.032842 42.005811-8.849744 21.136992-12.872355 48.905198-12.311628 81.768711l0.121897 11.165793 9.264195 6.241141c2.389187 1.609044 4.753995 3.096191 7.118803 4.461442-10.434409 129.186762-6.509316 176.946125 41.469462 231.531737 93.54399 76.624645 308.010105 73.918525 402.773069 4.485821 64.532432-60.924272 69.018253-129.235521 49.148992-234.701067m-196.449693-373.566475l1.36525-29.596665-17.528833-28.93842 24.42822-160.563127 100.175203 215.295016 152.542285 5.217205c78.721278-74.528011 129.28428-250.035748 116.850755-364.521695H86.042065c2.096634 100.540895 20.600644 272.245436 120.727088 359.572664l137.792712-1.292111 129.040485-212.90583 24.257563 159.197878-17.553212 28.93842 1.340871 29.596665c33.399861 1.82846 43.224784 1.82846 76.600265 0m114.120255 419.448619c-60.58296-11.848418-150.835723-22.209689-222.145645 17.870145-27.426893 15.432199-67.604244-16.187962-100.467757-12.945493a247.817217 247.817217 0 0 1-22.234068-65.629508l-3.656919-19.381672-19.503569 1.901598a27.329375 27.329375 0 0 1-11.31207-1.438388 43.346681 43.346681 0 0 1-5.290343-2.096633c0.511969-21.478305 3.535022-39.29969 9.06916-52.635256 4.875892-11.726521 11.726521-19.381671 20.600644-22.16093l11.385208-3.535021 3.120571-11.458347c9.556749-35.423356 20.259332-68.798838 35.301459-95.981936 13.945051-25.281501 31.839576-45.321417 56.560349-56.706625 10.361271-4.729615 43.492958-7.460115 78.111791-7.972084 36.788606-0.536348 73.504074 1.414009 85.620666 5.87545 27.231857 10.093097 46.881703 29.547906 62.143245 55.000063 16.382998 27.451273 28.012 62.192004 38.251374 100.32148l2.901155 10.897619 10.84886 3.778817c8.58157 3.071812 15.237163 10.84886 19.966779 22.721657 5.363481 13.213668 8.264637 30.7425 8.752226 51.806354a40.22611 40.22611 0 0 1-4.753995 1.901598 28.91404 28.91404 0 0 1-11.043895 1.682182l-18.967221-1.218973-3.535022 18.699047a243.307017 243.307017 0 0 1-19.722983 60.704856m0 0"  horiz-adv-x="1024" />

    
    <glyph glyph-name="zonglan" unicode="&#59789;" d="M256 32V352H128v-320H64V384a32 32 0 0 0 32 32h192a32 32 0 0 0 32-32v-352H256z m320 0V544h-128v-512h-64V576a32 32 0 0 0 32 32h192a32 32 0 0 0 32-32v-544h-64z m320 0V736h-128v-704h-64V768a32 32 0 0 0 32 32h192a32 32 0 0 0 32-32v-736h-64zM0 32h1024v-64H0v64z"  horiz-adv-x="1024" />

    
    <glyph glyph-name="lianshu" unicode="&#58883;" d="M436.48512 870.39488z m459.71456-823.6288c-14.15168 0.32256-26.44992-12.68736-26.20928-26.69056-0.76288-23.0144 0.04608-46.06976-0.17408-69.13536-212.3776 0.04608-424.75008-0.10752-637.11744 0.08192-32.04096-1.024-64.5376 19.12832-72.87296 50.95424-13.13792 38.00576 14.70976 83.23584 54.40512 88.91392 45.04576 6.12352 642.93888 1.46432 670.98624 2.4832 10.00448 0.77312 21.49888 0.15872 29.20448 7.84896 7.08096 6.33856 8.84736 16.19968 8.61696 25.2928-0.1024 230.8352-0.1024 461.71648 0 692.608-0.56832 13.12256 2.57024 28.0064-5.71392 39.39328-4.98176 7.33696-14.3616 9.02144-22.10304 11.8784H436.5056l0.12288-615.6032-101.48352 112.384s-73.10848-74.92096-105.64608-111.49312c0 0 0.11776 399.5648-0.06144 588.95872 0.0768 8.63744 0 25.75872 0 25.75872-10.38848-1.22368-17.00352-2.52928-25.87648-4.02944-39.1168-6.81984-73.42592-34.60096-89.7024-70.59968-7.38816-16.02048-9.6768-33.6896-13.02016-50.8416v-723.94752c3.79392-18.58048 6.05696-38.00576 15.44704-54.8608 16.83456-33.83808 50.08384-58.91584 87.27552-65.55136 24.07936-4.83328 48.73728-2.16064 73.08288-2.81088h615.98208c15.53408-1.65888 30.65856 11.2384 30.18752 27.12064a4302.4896 4302.4896 0 0 1 0 95.15008c0.18432 14.12096-12.34432 27.2384-26.61376 26.73664z m-71.30624 466.8416c-6.06208-6.0672-14.85312-9.10848-26.38848-9.10848H523.6992c-12.1344 0-21.0688 3.04128-26.82368 9.10848-5.77024 6.05696-8.64768 13.34272-8.64768 21.8368 0 8.48384 3.33312 15.91296 10.00448 22.28736 6.68672 6.36928 16.08192 9.5488 28.20096 9.5488h271.1552c12.13952 0 21.24288-3.17952 27.30496-9.5488 6.0672-6.3744 9.09312-13.80352 9.09312-22.28736 0.00512-8.4992-3.02592-15.77984-9.09312-21.8368zM498.23232 788.84352c6.66624 5.16096 14.54592 7.7312 23.6544 7.7312h184.71936c9.08288 0 16.81408-2.57024 23.18336-7.7312 6.36928-5.16096 9.56416-11.9808 9.56416-20.47488 0-8.49408-3.19488-15.77472-9.56416-21.82656-6.36928-6.07744-14.10048-9.10848-23.18336-9.10848h-184.71936c-9.10336 0-16.98816 3.03104-23.6544 9.10848-6.67136 6.05696-10.01472 13.33248-10.01472 21.82656 0 8.49408 3.34336 15.31392 10.01472 20.47488z m-2.27328-113.28512c5.15072 6.07232 13.7984 9.10336 25.92256 9.10336h278.4256c12.12928 0 20.94592-3.03104 26.38848-9.10336 5.47328-6.05696 8.192-13.6448 8.192-22.74304 0-8.48896-2.57536-15.7696-7.7312-21.84704-5.16608-6.05696-13.79328-9.088-25.92768-9.088h-278.4256c-12.14464 0-20.92544 3.03104-26.39872 9.088-5.46304 6.07744-8.18688 13.35296-8.18688 21.84704 0 9.10336 2.58048 16.68608 7.74144 22.74304z"  horiz-adv-x="1024" />

    
    <glyph glyph-name="shangbao" unicode="&#58901;" d="M870.4-20.48H153.6c-25.088 0-46.08 20.48-46.08 46.08V742.4c0 25.088 20.48 46.08 46.08 46.08h716.8c25.088 0 46.08-20.48 46.08-46.08v-716.8c0-25.6-20.48-46.08-46.08-46.08z m-205.312 329.728H358.912v-79.872h306.176v79.872z m-0.512-124.416H358.912v-79.872h305.664v79.872z m18.432 378.368L508.416 737.792 333.824 563.2l56.832-56.832 77.824 77.824v-199.68h80.384v199.68l77.824-77.824 56.32 56.832z"  horiz-adv-x="1024" />

    
    <glyph glyph-name="chuli" unicode="&#58888;" d="M267.377778 219.932444c-15.36 0-27.875556-17.294222-27.875556-32.597333 0-15.303111 12.515556-32.597333 27.875556-32.597333h97.052444c15.416889 0 27.875556 17.294222 27.875556 32.597333 0 15.303111-12.458667 32.597333-27.875556 32.597333H267.434667z m438.499555 166.684445c0 15.303111-12.515556 32.654222-27.932444 32.654222H267.377778c-15.416889 0-27.875556-17.351111-27.875556-32.654222 0-15.36 12.458667-32.711111 27.875556-32.711111h410.510222c15.36 0 27.875556 17.408 27.875556 32.711111zM267.377778 547.612444h410.965333c15.36 0 26.680889 16.782222 26.680889 32.085334 0 15.36-11.264 32.028444-26.680889 32.028444H267.434667c-15.416889 0-29.184-16.725333-29.184-32.028444 0-15.303111 13.767111-32.028444 29.184-32.028445z m560.924444-181.361777V707.982222c0 40.448-25.884444 74.24-66.56 74.24H180.337778C139.605333 782.222222 113.777778 736.199111 113.777778 695.751111v-623.502222c0-40.448 36.408889-86.471111 77.084444-86.471111h438.385778c23.210667 0 34.360889 14.449778 34.360889 33.678222 0 22.471111-13.482667 31.345778-28.728889 31.630222l-420.522667 0.568889c-21.845333 0-37.262222 17.237333-37.205333 39.025778l0.056889 587.150222c0 19.285333 8.533333 26.908444 27.704889 26.965333l529.464889 0.170667c19.456 0 27.306667-7.736889 27.306666-27.192889l0.113778-311.523555c0-15.303111 10.922667-29.923556 34.304-29.923556 21.731556 0 32.256 14.620444 32.256 29.923556zM472.177778 184.888889c0-30.776889 24.462222-55.751111 54.727111-55.751111a55.239111 55.239111 0 0 1 54.784 55.751111c0 30.776889-24.462222 55.751111-54.784 55.751111a55.239111 55.239111 0 0 1-54.727111-55.751111z m219.022222 55.751111a55.239111 55.239111 0 0 1-54.784-55.751111c0-30.776889 24.519111-55.751111 54.784-55.751111a55.239111 55.239111 0 0 1 54.727111 55.751111c0 30.776889-24.462222 55.751111-54.727111 55.751111z m164.238222 0a55.239111 55.239111 0 0 1-54.727111-55.751111c0-30.776889 24.462222-55.751111 54.727111-55.751111A55.239111 55.239111 0 0 1 910.222222 184.888889c0 30.776889-24.462222 55.751111-54.784 55.751111z"  horiz-adv-x="1024" />

    
    <glyph glyph-name="xitongjiankong" unicode="&#58912;" d="M827.392-57.344h-90.624l-95.232 138.24c166.912 54.784 288.256 211.968 288.256 396.8C930.304 708.096 742.4 896 512 896S93.696 708.608 93.696 478.208c0-185.344 121.344-343.04 288.768-397.824l-94.72-137.728h-91.136c-19.456 0-35.328-15.872-35.328-35.328 0-19.456 15.36-35.328 35.328-35.328h630.784c19.456 0 35.328 15.872 35.328 35.328 0 19.456-15.36 35.328-35.328 35.328zM487.936 785.408c6.656 6.656 15.36 10.24 24.576 10.24 9.216 0 18.432-4.096 24.576-10.24 6.656-6.656 10.24-15.36 10.24-24.576 0-9.216-4.096-18.432-10.24-24.576-6.656-6.656-15.36-10.24-24.576-10.24-9.216 0-18.432 4.096-24.576 10.24-6.656 6.656-10.24 15.36-10.24 24.576 0 9.216 3.584 17.408 10.24 24.576zM305.664 477.696c0 113.664 92.672 206.336 206.336 206.336s206.336-92.672 206.336-206.336S625.664 271.36 512 271.36s-206.336 92.672-206.336 206.336zM656.896 477.696c0 79.872-65.024 144.896-144.896 144.896s-144.896-65.024-144.896-144.896c0-79.872 65.024-144.896 144.896-144.896s144.896 65.024 144.896 144.896z"  horiz-adv-x="1024" />

    
    <glyph glyph-name="chuzhishu" unicode="&#58886;" d="M168.65792 124.35968000000003c-15.80032 0-28.61056 12.8512-28.61056 28.69248s12.81024 28.69248 28.61056 28.69248h258.94912a313.82528 313.82528 0 0 0 33.18784 114.74432H168.65792c-15.80032 0-28.61056 12.8512-28.61056 28.68736 0 15.85664 12.81024 28.69248 28.61056 28.69248h329.45152c57.728 70.08256 145.0496 114.75456 242.78528 114.75456 9.65632 0 19.16416-0.59392 28.61056-1.44896V812.87168c0 31.68256-25.62048 57.37472-57.22624 57.37472H82.82112C51.21536 870.2464 25.6 844.55424 25.6 812.87168v-803.2512c0-31.68768 25.61536-57.38496 57.22112-57.38496h415.28832a314.59328 314.59328 0 0 0-70.50752 172.12416H168.65792z m0 573.75744h457.78944c15.80032 0 28.61568-12.83584 28.61568-28.68736 0-15.8464-12.81536-28.69248-28.61568-28.69248H168.65792c-15.80032 0-28.61056 12.84608-28.61056 28.69248s12.80512 28.68736 28.61056 28.68736z m0-172.12928h457.78944c15.80032 0 28.61568-12.84096 28.61568-28.68736 0-15.84128-12.81536-28.68736-28.61568-28.68736H168.65792c-15.80032 0-28.61056 12.84608-28.61056 28.68736 0 15.85152 12.80512 28.68736 28.61056 28.68736z m572.2368-114.74432c-70.55872 0-134.39488-28.55936-180.90496-74.63936l178.79552-143.41632 161.09568 161.536c-43.88864 34.84672-98.65216 56.51968-158.98624 56.51968z m-257.5104-258.18624c0-132.76672 100.3264-240.86016 228.89472-255.29856v243.17952l-188.00128 150.79424c-25.58976-40.12544-40.89344-87.51616-40.89344-138.6752z m457.11872 161.25952l-170.99776-171.44832v-245.10976c128.56832 14.4384 228.89472 122.53696 228.89472 255.29856 0 61.35808-22.23616 116.9664-57.89696 161.25952z"  horiz-adv-x="1024" />

    
    <glyph glyph-name="ziyuan" unicode="&#58885;" d="M988.310588 302.983529h-134.324706a146.672941 146.672941 0 0 1-123.783529 120.470589V715.294118h258.108235a30.117647 30.117647 0 0 1 0 60.235294h-258.108235V865.882353a30.117647 30.117647 0 0 1-60.235294 0v-90.352941h-150.588235l-117.157648-87.94353h-361.411764a30.117647 30.117647 0 0 1 0-60.235294h152.997647v-324.367059H35.689412a30.117647 30.117647 0 0 1 0-60.235294h158.117647V-97.882353a30.117647 30.117647 0 0 1 60.235294 0V242.748235h313.223529a147.576471 147.576471 0 0 1 102.701177-104.508235V-97.882353a30.117647 30.117647 0 0 1 60.235294 0v232.508235a146.371765 146.371765 0 0 1 120.470588 108.122353h137.035294a30.117647 30.117647 0 0 1 0 60.235294z m-423.755294 0H254.042353V627.350588h168.056471L539.858824 715.294118h130.108235v-293.345883a146.672941 146.672941 0 0 1-105.411765-118.964706z m144.564706-110.230588a87.04 87.04 0 1 0 87.04 86.738824 86.738824 86.738824 0 0 0-87.04-86.738824z"  horiz-adv-x="1024" />

    
    <glyph glyph-name="jiedao" unicode="&#58882;" d="M860.972373-14.677333V659.879253L512 882.346667 163.027627 659.879253V-14.677333H13.653333V-114.346667h996.693334v99.669334h-149.374294z m-398.677333 99.669333h-99.669333v99.669333h99.669333v-99.669333z m0 199.338667h-99.669333V384h99.669333v-99.669333z m0 299.008h99.669333v-99.669334h-99.669333V583.338667z m199.338667-498.346667h-99.669334v99.669333h99.669334v-99.669333z m0 199.338667h-99.669334V384h99.669334v-99.669333z m0 0"  horiz-adv-x="1024" />

    
    <glyph glyph-name="anjuan" unicode="&#58925;" d="M256.400447 874.83352H64.643575C29.061006 874.83352 0.228827 845.886927 0.228827 810.418771v-853.066369c0-35.58257 28.946592-64.414749 64.414748-64.414748H256.286034c35.58257 0 64.414749 28.946592 64.414748 64.414748V810.304358c0.114413 35.58257-28.832179 64.529162-64.300335 64.529162z m6.750391-917.595531c0-3.775642-3.089162-6.864804-6.864804-6.864805H64.643575c-3.775642 0-6.864804 3.089162-6.864804 6.864805V810.304358c0 3.775642 3.089162 6.864804 6.864804 6.864804H256.286034c3.775642 0 6.864804-3.089162 6.864804-6.864804v-853.066369z m-53.545475 476.303017H111.438659c-15.903464 0-28.832179-12.928715-28.832179-28.832179 0-15.903464 12.928715-28.832179 28.832179-28.832179h98.281118c15.903464 0 28.832179 12.928715 28.832178 28.832179-0.114413 16.017877-13.043128 28.832179-28.946592 28.832179z m0 259.489609H111.438659c-15.903464 0-28.832179-12.928715-28.832179-28.832179s12.928715-28.832179 28.832179-28.832179h98.281118c15.903464 0 28.832179 12.928715 28.832178 28.832179s-13.043128 28.832179-28.946592 28.832179z m0-129.744805H111.438659c-15.903464 0-28.832179-12.928715-28.832179-28.832179 0-15.903464 12.928715-28.832179 28.832179-28.832178h98.281118c15.903464 0 28.832179 12.928715 28.832178 28.832178-0.114413 15.903464-13.043128 28.832179-28.946592 28.832179z m351.706816-129.744804h-98.281118c-15.903464 0-28.832179-12.928715-28.832178-28.832179 0-15.903464 12.928715-28.832179 28.832178-28.832179h98.281118c15.903464 0 28.832179 12.928715 28.832179 28.832179 0 16.017877-12.928715 28.832179-28.832179 28.832179z m0 259.489609h-98.281118c-15.903464 0-28.832179-12.928715-28.832178-28.832179s12.928715-28.832179 28.832178-28.832179h98.281118c15.903464 0 28.832179 12.928715 28.832179 28.832179s-12.928715 28.832179-28.832179 28.832179z m46.68067 181.802905H416.350391c-35.58257 0-64.529162-28.946592-64.529162-64.414749v-853.066369c0-35.58257 28.946592-64.414749 64.529162-64.414748h191.642458c35.58257 0 64.414749 28.946592 64.414749 64.414748V810.304358c0.114413 35.58257-28.832179 64.529162-64.414749 64.529162z m6.864805-917.595531c0-3.775642-3.089162-6.864804-6.864805-6.864805H416.350391c-3.775642 0-6.864804 3.089162-6.864804 6.864805V810.304358c0 3.775642 3.089162 6.864804 6.864804 6.864804h191.642458c3.775642 0 6.864804-3.089162 6.864805-6.864804v-853.066369z m-53.545475 606.047821h-98.281118c-15.903464 0-28.832179-12.928715-28.832178-28.832179 0-15.903464 12.928715-28.832179 28.832178-28.832178h98.281118c15.903464 0 28.832179 12.928715 28.832179 28.832178 0 15.903464-12.928715 28.832179-28.832179 28.832179zM913.018994 693.030615h-98.281117c-15.903464 0-28.832179-12.928715-28.832179-28.832179s12.928715-28.832179 28.832179-28.832179H913.018994c15.903464 0 28.832179 12.928715 28.832179 28.832179s-12.928715 28.832179-28.832179 28.832179z m46.680671 181.802905H768.057207c-35.58257 0-64.529162-28.946592-64.529162-64.529162v-852.951956c0-35.58257 28.946592-64.414749 64.414748-64.414748h191.642458c35.58257 0 64.529162 28.946592 64.529162 64.414748V810.304358c0.114413 35.58257-28.832179 64.529162-64.414748 64.529162z m6.864804-917.595531c0-3.775642-3.089162-6.864804-6.864804-6.864805H768.057207c-3.775642 0-6.864804 3.089162-6.864805 6.864805V810.304358c0 3.775642 3.089162 6.864804 6.864805 6.864804h191.642458c3.775642 0 6.864804-3.089162 6.864804-6.864804v-853.066369zM913.018994 433.541006h-98.281117c-15.903464 0-28.832179-12.928715-28.832179-28.832179 0-15.903464 12.928715-28.832179 28.832179-28.832179H913.018994c15.903464 0 28.832179 12.928715 28.832179 28.832179 0 16.017877-12.928715 28.832179-28.832179 28.832179z m0 129.744804h-98.281117c-15.903464 0-28.832179-12.928715-28.832179-28.832179 0-15.903464 12.928715-28.832179 28.832179-28.832178H913.018994c15.903464 0 28.832179 12.928715 28.832179 28.832178 0 15.903464-12.928715 28.832179-28.832179 28.832179z"  horiz-adv-x="1024" />

    
    <glyph glyph-name="yongtu" unicode="&#58953;" d="M545.64864 343.67488v-247.66464A32.768 32.768 0 0 0 512 64a32.27648 32.27648 0 0 0-33.64864 30.72V343.67488l-235.52 129.26976a31.15008 31.15008 0 0 0-12.12416 43.52 33.8944 33.8944 0 0 0 44.89216 12.00128l0.88064-0.47104 235.52-128 233.472 128a33.95584 33.95584 0 0 0 45.2608-10.69056l0.512-0.8192a31.15008 31.15008 0 0 0-12.12416-43.52l-233.472-128v-1.26976zM40.96 640v-512L512-128l471.04 256v512L512 896z m874.78272-480.01024L512-64 108.25728 159.98976V607.98976L512 832l403.74272-224.01024v-448z"  horiz-adv-x="1024" />

    
    <glyph glyph-name="chaichugaizaox" unicode="&#58966;" d="M879.07896889 432.09159111h0.05006222v0.05461334l-0.05006222-0.05461334z m0 0M977.79598222 509.56060445L566.25834667 848.54897778c-30.57208889 25.18584889-78.91626667 25.29166222-109.53841778 0L45.08103111 509.56060445c-39.22488889-32.33223111-25.08003555-77.46901333 26.58531556-77.46901334h72.12714666v-454.33856a75.51089778 75.51089778 0 0 1 21.79982222-53.54040889 75.49269333 75.49269333 0 0 1 53.2844089-22.42673777h585.17390222c41.60853333 0 75.07740445 34.09464889 75.07740444 75.96032V432.09159111h-0.05006222l0.05006222 0.05461334v-0.05461334h72.07822222c51.09532445 0 66.06961778 44.98204445 26.58872889 77.46901334z m-150.4768-25.64892445V-22.25493332999997a23.67715555 23.67715555 0 0 0-6.62983111-16.90055112 23.67715555 23.67715555 0 0 0-16.63772444-7.24309333H218.92778667c-12.8 0-23.31761778 10.67576889-23.31761778 24.14364445V483.96743111h-100.16540444l394.17628444 324.57955556c11.55413333 9.47996445 32.28558222 9.47996445 43.68384 0L927.48231111 483.91168h-100.16312889z m0 0M521.69728 839.22944l-37.41468445-6.41365333L56.10382222 476.24647111l-6.41365333-19.23982222 134.67648-19.23982222-23.08778667-482.26759112 37.95854223-19.23868444h618.74744888l30.78257778 24.36892444 5.13137778 488.68124445 116.71893333 26.93575111-448.92046222 362.98296889z m216.53390222-780.18104889l-95.43566222-55.07982222a37.16323555 37.16323555 0 0 0-50.90986667 13.19139556L430.40654222 296.95772445l-51.09646222-29.50371556a36.92885333 36.92885333 0 0 0-50.67662222 14.02538666l-55.07868445 95.44021334c-10.29575111 17.66058667-4.45895111 40.33194667 13.09696 50.81315556l160.92501334 92.94051555 204.20266666 15.63648 48.31345778-83.63121778-109.39164444-63.16487111 161.55420444-279.78865778c10.17969778-17.63100445 4.16768-40.12600889-14.02424889-50.67662222zM299.24807111 822.74759111h-101.04263111c-28.29767111 0-50.78471111-22.80334222-50.78471111-50.98609778V529.04391111l202.60408889 174.11072v68.65578667c0.00113778 27.97795555-22.74531555 50.93717333-50.77674667 50.93717333zM298.20472889 726.88526222l-98.96732444-84.97948444v129.024h98.96732444z"  horiz-adv-x="1024" />

    
    <glyph glyph-name="tupian" unicode="&#58907;" d="M1024 60.416000000000054c0-47.104-38.912-85.504-84.992-85.504H84.992C37.376-25.087999999999965 0 13.823999999999955 0 60.416000000000054v647.68c0 47.104 38.912 84.992 84.992 84.992h852.992c47.104 0 84.992-37.888 84.992-84.992v-647.68H1024z m-939.008 665.6c-9.216 0-16.896-7.68-16.896-16.896v-648.704c0-9.728 7.68-16.896 16.896-16.896h852.992c9.216 0 16.896 7.68 16.896 16.896v647.68c0 9.216-7.68 16.896-16.896 16.896H84.992v1.024z m154.112-273.92c-56.32 0-101.888 45.056-101.888 100.864v1.024c-0.512 56.32 45.056 102.912 101.888 102.912h0.512c56.832 0 101.888-45.568 101.888-101.888 0-56.32-45.568-102.4-102.4-102.912z m648.192-340.992h-750.08V214.01599999999996l171.008 171.008 84.992-84.992 272.896 271.872L888.32 350.20799999999997v-239.104h-1.024z"  horiz-adv-x="1024" />

    
    <glyph glyph-name="chuli1" unicode="&#58913;" d="M893.470118 860.882824H130.529882C78.064941 860.882824 35.538824 817.935059 35.538824 765.470118l-0.481883-858.352942L225.882353 97.882353h667.587765c52.464941 0 95.412706 42.947765 95.412706 95.352471v572.235294c0 52.464941-42.947765 95.412706-95.412706 95.412706z m-667.587765-572.235295V406.407529L553.984 734.569412a23.612235 23.612235 0 0 0 33.852235 0l84.389647-84.389647a23.612235 23.612235 0 0 0 0-33.912471l-328.583529-327.559529H225.882353z m572.235294 0H440.440471L535.853176 384h262.264471v-95.352471z"  horiz-adv-x="1024" />

    
    <glyph glyph-name="jiean" unicode="&#58896;" d="M276.0704 688.9472h417.792c20.0704 0 36.4544-16.384 36.4544-36.4544s-16.384-36.4544-36.4544-36.4544h-417.792c-20.0704 0-36.4544 16.384-36.4544 36.4544 0.2048 20.2752 16.384 36.4544 36.4544 36.4544z m0-349.3888h225.28c20.0704 0 36.4544-16.384 36.4544-36.4544s-16.384-36.4544-36.4544-36.4544h-225.28c-20.0704 0-36.4544 16.384-36.4544 36.4544 0.2048 20.2752 16.384 36.4544 36.4544 36.4544z m0-174.08h99.1232c20.0704 0 36.4544-16.384 36.4544-36.4544s-16.384-36.4544-36.4544-36.4544h-99.1232c-20.0704 0-36.4544 16.384-36.4544 36.4544 0.2048 20.0704 16.384 36.4544 36.4544 36.4544z m0 333.824h417.792c20.0704 0 36.4544-16.384 36.4544-36.4544s-16.384-36.4544-36.4544-36.4544h-417.792c-20.0704 0-36.4544 16.384-36.4544 36.4544 0.2048 20.2752 16.384 36.4544 36.4544 36.4544zM154.2144-75.9808h365.7728c17.408 0 31.5392 14.1312 31.5392 31.5392s-14.1312 31.5392-31.5392 31.5392H154.2144c-6.9632 0-12.6976 5.7344-12.6976 12.6976V768.4096c0 6.9632 5.7344 12.6976 12.6976 12.6976h661.7088c6.9632 0 12.6976-5.7344 12.6976-12.6976v-291.4304c0-17.408 14.1312-31.5392 31.5392-31.5392s31.5392 14.1312 31.5392 31.5392V768.4096C891.6992 809.984 857.7024 843.9808 816.128 843.9808H154.2144c-41.5744 0-75.776-33.9968-75.776-75.5712v-768.8192c0-41.5744 34.2016-75.5712 75.776-75.5712zM878.7968-55.296l-128.8192 160.9728-47.3088-45.056-122.88 130.048 129.8432 123.904 122.88-130.048-45.056-43.008 147.456-143.36c14.7456-15.5648 13.9264-40.1408-1.4336-54.8864-15.5648-14.7456-40.1408-14.1312-54.6816 1.4336z m-24.1664 285.0816l-98.5088 105.8816c-9.216 9.6256-8.8064 24.9856 1.024 34.4064s24.9856 8.8064 34.2016-0.8192l98.5088-105.8816c9.216-9.6256 8.8064-24.9856-1.024-34.4064-9.8304-9.216-24.9856-8.8064-34.2016 0.8192z m-297.1648-84.5824l98.7136-105.8816c9.216-9.6256 8.8064-24.9856-1.024-34.4064-9.6256-9.216-24.9856-8.8064-34.2016 0.8192L522.24 111.616c-9.216 9.6256-8.8064 24.9856 1.024 34.4064 9.8304 9.216 24.9856 9.0112 34.2016-0.8192z"  horiz-adv-x="1024" />

    
    <glyph glyph-name="tongji-" unicode="&#59319;" d="M518.697674-111.627907c-270.883721 0-491.162791 221.767442-491.16279 491.162791 0 270.883721 221.767442 491.162791 491.16279 491.16279s491.162791-221.767442 491.162791-491.16279-220.27907-491.162791-491.162791-491.162791z m-461.395348 491.162791c0-253.023256 206.883721-461.395349 461.395348-461.395349 245.581395 0 449.488372 193.488372 461.395349 442.046512l-455.44186-13.395349h-8.930233c-2.976744 0-8.930233 2.976744-10.418604 5.953488L173.395349 684.651163c-74.418605-83.348837-116.093023-193.488372-116.093023-305.116279z m461.395348 461.395349c-123.534884 0-239.627907-46.139535-324.465116-133.953489l324.465116-324.465116L832.744186 717.395349c-84.837209 80.372093-196.465116 123.534884-314.046512 123.534884z m336.372093-144.372093L554.418605 379.534884l425.674418 10.418604c-2.976744 114.604651-46.139535 224.744186-125.023256 306.604652zM518.697674-122.046512c-276.837209 0-501.581395 224.744186-501.581395 501.581396S241.860465 881.116279 518.697674 881.116279s501.581395-224.744186 501.581396-501.581395-224.744186-501.581395-501.581396-501.581396z m0 982.325582C253.767442 860.27907 37.953488 644.465116 37.953488 379.534884S253.767442-101.209302 518.697674-101.209302s480.744186 215.813953 480.744186 480.744186S783.627907 860.27907 518.697674 860.27907z m0-952.55814c-260.465116 0-471.813953 211.348837-471.813953 471.813954 0 114.604651 41.674419 226.232558 117.581395 312.558139l7.441861 8.930233L512.744186 360.186047c1.488372-1.488372 2.976744-1.488372 4.465116-2.976745h7.441861l467.348837 13.395349v-11.906977C980.093023 107.162791 773.209302-92.27907 518.697674-92.27907zM173.395349 669.767442c-66.976744-81.860465-104.186047-184.55814-104.186047-290.232558C69.209302 130.976744 270.139535-71.44186 518.697674-71.44186c238.139535 0 433.116279 184.55814 449.488373 421.209302l-452.465117-13.395349c-5.953488 0-14.883721 4.465116-17.860465 8.930233L173.395349 669.767442z m346.790698-302.139535L179.348837 706.976744l7.441861 7.441861C273.116279 802.232558 390.697674 851.348837 518.697674 851.348837c120.55814 0 233.674419-44.651163 321.488373-125.023256l7.44186-7.44186-327.44186-351.255814zM209.116279 706.976744l309.581395-309.581395L817.860465 717.395349c-81.860465 72.930233-187.534884 113.116279-299.162791 113.116279-119.069767 0-227.72093-44.651163-309.581395-123.534884z m320-339.348837l325.953488 342.325581 7.441861-7.44186c80.372093-83.348837 125.023256-193.488372 128-312.55814v-10.418604l-461.395349-11.906977z m325.953488 312.55814L579.72093 391.44186l389.953489 10.418605c-4.465116 104.186047-46.139535 203.906977-114.604652 278.325582z"  horiz-adv-x="1024" />

    
    <glyph glyph-name="dingwei2" unicode="&#58894;" d="M909.665049 498.319952C909.665049 719.100548 729.780859 897.884834 508.500308 895.985001 288.019686 894.085168 112.135144 714.700934 114.334951 494.220313c0.899921-90.392055 31.997188-173.584744 83.692644-239.878917L481.402689-112.926325c15.498638-20.098234 45.795975-20.098234 61.194622 0L825.972405 254.241405c52.395395 67.394077 83.692644 152.086633 83.692644 244.078547z"  horiz-adv-x="1024" />

    
    <glyph glyph-name="wangge" unicode="&#59002;" d="M384 832h256v-256H384zM704 832h256v-256h-256zM64 512h256v-256H64zM64 192h256v-256H64zM384 512h256v-256H384zM384 192h256v-256H384zM704 512h256v-256h-256zM704 192h256v-256h-256zM64 832h256v-256H64z"  horiz-adv-x="1024" />

    
    <glyph glyph-name="huishou" unicode="&#58884;" d="M284.729 183.751c10.809-17.92 40.391-9.671 58.027 1.138 17.635 10.809 16.497 43.235 5.688 61.155l-57.457 97.28c-15.076 25.6-52.054 24.463-65.423-1.99L84.196 61.723c-31.858-62.293-3.13-115.484 66.275-115.484H389.12c20.764 0 42.382 12.516 42.382 50.916 0 38.684-21.618 63.715-42.382 63.715H224.142c-13.369 0-20.48 10.525-14.506 21.902l60.302 126.294 14.79-25.316z m445.724-126.293c10.24 18.489-1.137 44.658-26.169 59.164-25.03 14.222-63.43-3.413-73.386-21.618l-50.631-91.59c-13.938-25.316 3.982-56.89 32.71-56.89H870.97c69.404 0 103.538 53.192 67.982 123.45L819.77 304.07c-9.671 18.773-53.191 36.125-77.085 23.609-23.893-12.516-43.235-39.822-33.848-58.596l103.253-208.497c5.973-11.947 0.853-23.04-12.231-23.04h-80.214l10.81 19.91z m-176.07 463.36c-20.765 0-33.85-22.471-33.565-48.356 0-25.884 17.066-44.373 37.83-44.089l141.37 0.854c27.875 0.284 39.822 44.373 26.738 69.404L580.55 773.12c-32.995 65.138-102.684 64-135.68-0.853L299.236 492.089c-9.672-18.773-0.854-44.658 31.573-61.44s64.284 7.964 73.671 26.453l100.693 187.165c1.707 3.413 16.498 5.689 17.636-5.12l58.311-118.33h-26.738z"  horiz-adv-x="1024" />

    


  </font>
</defs>
</svg>
